<svg xmlns="http://www.w3.org/2000/svg" xmlns:xlink="http://www.w3.org/1999/xlink" style="width:0;height:0;visibility:hidden;">
	<defs/>
	<symbol id="rd-icon-spotter" viewBox="0 0 44 44" fill="black">
		<path xmlns="http://www.w3.org/2000/svg" d="M 30.796875 5.332031 C 27.707031 7.121094 24.4375 9.460938 21.410156 12.488281 C 19.476562 14.421875 17.921875 16.300781 16.667969 18.0625 L 9.003906 19.480469 L 0.00390625 28.488281 L 8.03125 28.738281 L 13.683594 23.085938 C 11.6875 27.21875 11.511719 29.960938 11.511719 29.960938 L 14.039062 32.488281 C 14.039062 32.488281 16.867188 32.21875 21.03125 30.203125 L 15.257812 35.96875 L 15.511719 44 L 24.515625 34.996094 L 25.9375 27.292969 C 27.71875 26.046875 29.597656 24.5 31.511719 22.589844 C 34.539062 19.558594 36.875 16.292969 38.667969 13.199219 C 36.695312 12.800781 34.882812 11.976562 33.453125 10.550781 C 32.023438 9.117188 31.195312 7.304688 30.796875 5.332031 Z M 33.78125 3.730469 C 33.996094 5.664062 34.636719 7.222656 35.703125 8.285156 C 36.769531 9.359375 38.324219 10 40.265625 10.210938 C 43.101562 4.484375 43.996094 0 43.996094 0 C 43.996094 0 39.515625 0.894531 33.78125 3.730469 Z M 33.78125 3.730469 "/>
	</symbol>
</svg>
